<?xml version="1.0" ?><svg data-name="Layer 2" id="Layer_2" viewBox="0 0 512 512" xmlns="http://www.w3.org/2000/svg"><defs><style>.cls-1{fill:#fff;}</style></defs><title/><path d="M287.9951,372c-99.2524,0-180-80.7476-180-180s80.7476-180,180-180,180,80.7476,180,180a178.0143,178.0143,0,0,1-36.9292,109.2305,84.09,84.09,0,0,0,18.9546,15.32c14.0259,8.2353,27.4907,10.416,36.4009,11.8589,7.6445,1.2382,13.168,2.1328,13.562,7.2851a6.7585,6.7585,0,0,1-2.125,5.2246c-7.2124,7.6231-36.9424,15.7007-65.9478,15.08a152.9076,152.9076,0,0,1-50.7719-9.956A179.58,179.58,0,0,1,287.9951,372Zm0-352c-94.8413,0-172,77.1587-172,172s77.1587,172,172,172a171.5654,171.5654,0,0,0,90.6231-25.7964,4.0028,4.0028,0,0,1,3.5659-.3281A145.2825,145.2825,0,0,0,432.08,348.001c26.5767.5566,50.1919-6.4019,57.7827-10.8775-1.4477-.2866-3.1792-.5669-4.72-.8164-9.499-1.5385-23.8545-3.8637-39.1729-12.8579a92.9121,92.9121,0,0,1-23.14-19.42,3.9991,3.9991,0,0,1-.1079-5.1074A170.1778,170.1778,0,0,0,459.9951,192C459.9951,97.1587,382.8364,20,287.9951,20Zm204.857,317.9565h0Z"/><path class="cls-1" d="M224,144A175.9976,175.9976,0,0,0,86.1423,429.41,88.735,88.735,0,0,1,64,448c-24.6925,14.4984-47.6206,11.0408-48,16-.446,5.83,30.77,16.7006,64,16a149.4229,149.4229,0,0,0,51.2661-10.3987A176.0049,176.0049,0,1,0,224,144Z"/><path d="M224,500a179.5829,179.5829,0,0,1-93.1436-25.957,152.9262,152.9262,0,0,1-50.7719,9.956c-28.9932.6109-58.7359-7.4565-65.9478-15.08a6.7589,6.7589,0,0,1-2.125-5.2246c.3941-5.1523,5.9175-6.0469,13.562-7.2851,8.91-1.4429,22.375-3.6236,36.4009-11.8589a84.0924,84.0924,0,0,0,18.9546-15.32A178.0168,178.0168,0,0,1,44,320c0-99.2524,80.7476-180,180-180s180,80.7476,180,180S323.2524,500,224,500Zm-92.7339-34.3984a3.9993,3.9993,0,0,1,2.1109.602A171.5674,171.5674,0,0,0,224,492c94.8413,0,172-77.1587,172-172S318.8413,148,224,148,52,225.1587,52,320A170.18,170.18,0,0,0,89.2734,426.9214a3.9991,3.9991,0,0,1-.1079,5.1074,92.8958,92.8958,0,0,1-23.14,19.42c-15.3179,8.9942-29.6733,11.3194-39.1729,12.8579-1.54.25-3.2719.53-4.72.8164,7.59,4.4756,31.2149,11.4405,57.7827,10.8775a145.2966,145.2966,0,0,0,49.8955-10.1255A4.0062,4.0062,0,0,1,131.2661,465.6016Z"/><path d="M328,348a28,28,0,1,1,28-28A28.0314,28.0314,0,0,1,328,348Zm0-48a20,20,0,1,0,20,20A20.023,20.023,0,0,0,328,300Z"/><path d="M232,348a28,28,0,1,1,28-28A28.0314,28.0314,0,0,1,232,348Zm0-48a20,20,0,1,0,20,20A20.023,20.023,0,0,0,232,300Z"/><path d="M136,348a28,28,0,1,1,28-28A28.0314,28.0314,0,0,1,136,348Zm0-48a20,20,0,1,0,20,20A20.023,20.023,0,0,0,136,300Z"/><path d="M320.0044,195.998a3.968,3.968,0,0,1-2.3413-.7631,157.3984,157.3984,0,0,0-15.6655-10.3672,4,4,0,1,1,4.0058-6.9248A164.9143,164.9143,0,0,1,322.4023,188.79a4.0032,4.0032,0,0,1-2.3979,7.208Z"/><path d="M272.001,171.3257a4.007,4.007,0,0,1-1.2-.1846A155.979,155.979,0,0,0,224,164a4,4,0,0,1,0-8,163.9984,163.9984,0,0,1,49.1987,7.5083,4.0007,4.0007,0,0,1-1.1977,7.8174Z"/><path d="M402.2632,84a3.9882,3.9882,0,0,1-2.8569-1.2,157.3213,157.3213,0,0,0-17.8086-15.6138,4,4,0,0,1,4.8046-6.3965A165.3489,165.3489,0,0,1,405.1191,77.2a4,4,0,0,1-2.8559,6.8Z"/><path d="M351.998,49.3145a3.9927,3.9927,0,0,1-1.6-.3355A154.901,154.901,0,0,0,288,36a4,4,0,0,1,0-8,162.859,162.859,0,0,1,65.6016,13.6479,4.0008,4.0008,0,0,1-1.6036,7.6666Z"/></svg>